<?xml version="1.0" encoding="utf-8"?>

<!DOCTYPE svg PUBLIC "-//W3C//DTD SVG 1.1//EN" "http://www.w3.org/Graphics/SVG/1.1/DTD/svg11.dtd">
<svg version="1.1" id="Layer_1" xmlns="http://www.w3.org/2000/svg" xmlns:xlink="http://www.w3.org/1999/xlink" x="0px" y="0px"
	 viewBox="0 0 1920 2259" enable-background="new 0 0 1920 2259" xml:space="preserve">
<g>
	<path fill="#603916" stroke="#603916" d="M924.21,43.21c22.32-6.15,45.83-6.58,68.74-4.14c25.35,2.57,51.03,2.66,76.04,7.99
		c23.27,4.76,44.14,16.62,66.31,24.65c8.88,3.43,18.2,5.47,27.16,8.65c16.39,5.61,31.93,13.9,45.36,24.89
		c25.98,21.14,48.29,47.04,64.28,76.53c7.7,14.5,14.27,29.89,16.8,46.21c0.42,3.62,3.66,5.86,5.25,8.95
		c5.26,8.6,5.02,18.97,7.31,28.49c6.83,33.1,15.3,66.07,17.3,99.94c-3.52-2.57-8-3.83-12.3-2.85c-7.26,1.63-13.15,6.63-18.3,11.76
		c-8.14,8.41-14.77,18.14-20.85,28.1c-2.54,4.37-5.44,8.61-6.91,13.5c-1.86-11.98-5.58-23.59-9.26-35.11
		c-9.38-27.67-22.96-55.06-45.35-74.51c-3.58-2.63-2.63-8.23-6.59-10.49c-13.28-10.05-27-20.33-43.14-25.23
		c-9.05-2.77-18.99-1.12-27.07,3.63c-19.46,11.28-34.07,29.39-54.18,39.69c-13.09,6.93-28.12,9.29-42.8,9.15
		c-9.35,0.06-18.7-0.12-28.04-0.57c-2.74-0.15-5.3,0.97-7.89,1.62c-10.44,2.83-21.36,2.07-32.04,1.87
		c-11.46,0.51-22.94-0.78-34.05-3.55c-9.07-0.53-17.95-3.09-25.92-7.45c-9.89-5.16-18.75-12.02-28.33-17.69
		c-4.95-3.13-10.87-6.88-16.9-4.45c-8.44,3.09-17.03,7.06-23.01,13.98c-7.01,7.37-15.91,12.54-24.77,17.35
		c-3.16,1.77-6.65,2.73-10.07,3.84c-2.03,0.42-2.84,2.52-3.95,4.01c-18.02,27.51-27.72,59.47-34.4,91.4
		c-9.33-15.43-18.77-31.53-33.24-42.76c-6.06-4.87-14.89-7.53-22-3.26c0.15-19.82,2.02-39.59,2.94-59.39
		c0.84-18.36,2.94-37.1,10.68-53.99c3.8-8.36,8.93-16.07,12.26-24.66c1.75-4.43,2.28-9.27,4.5-13.52c1.57-2.69,0.55-5.87,0.71-8.8
		c-0.2-8.19,4.42-15.81,10.74-20.75c2.5-2.47,6.33-4.22,7.01-7.99c3.79-14.83,10.98-28.67,20.03-40.95
		c18.86-25.33,45.52-43.72,73.66-57.39c3-1.61,6.54-2.46,8.94-5.02c8.28-9.1,17.09-17.88,27.4-24.71
		C897.88,52.52,910.81,46.9,924.21,43.21z"/>
	<path fill="#FBB03B" stroke="#FBB03B" d="M1128.99,274.17c8.08-4.75,18.02-6.4,27.07-3.63c16.14,4.9,29.86,15.18,43.14,25.23
		c3.96,2.26,3.01,7.86,6.59,10.49c22.39,19.45,35.97,46.84,45.35,74.51c3.68,11.52,7.4,23.13,9.26,35.11
		c1.47-4.89,4.37-9.13,6.91-13.5c6.08-9.96,12.71-19.69,20.85-28.1c5.15-5.13,11.04-10.13,18.3-11.76c4.3-0.98,8.78,0.28,12.3,2.85
		c5.99,5.21,9.28,12.66,11.76,20.03c3.93,11.99,5.83,24.53,7.34,37.03c0.85,9.13,2.3,18.3,1.54,27.5
		c-0.99,15.05-3.21,30.04-6.99,44.65c-4.41,16.73-10.85,33.33-21.75,46.96c-9.88,12.76-24.88,21.55-41.06,22.91
		c-4.57,49.07-19.11,98.02-47.32,138.84c-3.21,5.02-7.26,9.46-10.41,14.51c-0.24,52.05-0.14,104.13-0.04,156.2l-0.1,1.6
		c-17.08,29.28-38.67,55.7-61.89,80.31c-37.58,39.45-79.73,74.45-124.52,105.43c-2.17,1.35-4.82,3.98-7.33,1.79
		c-28.53-17.28-55.93-36.41-82.22-56.94c-29.12-22.9-56.91-47.66-81.6-75.34c-14.86-16.79-28.74-34.56-40.14-53.89
		c-0.62-0.98-1.27-2.01-2.41-2.38c-0.37-52.89,0.13-105.79-0.24-158.66c-1.9-3.4-4.61-6.25-6.74-9.48
		c-26.96-37.86-41.98-83.14-47.87-128.98c-12.5-0.89-24.66-5.86-34-14.24c-13.14-11.62-21.2-27.8-26.72-44.19
		c-6.33-19.36-9.59-39.65-10.55-59.97c0.07-12.41,1.7-24.79,3.53-37.05c2.03-11.9,4.49-24,10.22-34.74
		c1.97-3.85,4.85-7.15,8.15-9.92c7.11-4.27,15.94-1.61,22,3.26c14.47,11.23,23.91,27.33,33.24,42.76
		c6.68-31.93,16.38-63.89,34.4-91.4c1.11-1.49,1.92-3.59,3.95-4.01c3.42-1.11,6.91-2.07,10.07-3.84
		c8.86-4.81,17.76-9.98,24.77-17.35c5.98-6.92,14.57-10.89,23.01-13.98c6.03-2.43,11.95,1.32,16.9,4.45
		c9.58,5.67,18.44,12.53,28.33,17.69c7.97,4.36,16.85,6.92,25.92,7.45c11.11,2.77,22.59,4.06,34.05,3.55
		c10.68,0.2,21.6,0.96,32.04-1.87c2.59-0.65,5.15-1.77,7.89-1.62c9.34,0.45,18.69,0.63,28.04,0.57c14.68,0.14,29.71-2.22,42.8-9.15
		C1094.92,303.56,1109.53,285.45,1128.99,274.17 M1299.4,420.24c-1.24,0.8-2.95,1.31-3.47,2.81c0.07,1.51,1.71,2.06,3.02,1.98
		c2.83,0.13,5.31-1.56,8.06-1.98c2.55,1.25,2.87,4.44,3.13,6.95c0.43,7.69-0.77,15.36-1.98,22.94c-1.96,11.12-4.39,22.38-9.91,32.36
		c-4.09,6.98-9.03,13.48-14.89,19.08c-1.96,2.1-4.72,3.66-5.61,6.55c2.63,0.32,5.52,0.94,8-0.36c3.36-2.12,6.07-5.08,8.59-8.12
		c12.45-13.22,19.25-30.7,23.07-48.2c1.92-9.71,5.06-19.64,3.02-29.58c-1.15-3.14-2.07-7.28-5.48-8.67
		C1309.39,414.93,1304.17,417.8,1299.4,420.24 M713.11,419.04c-2.26,0.83-4.48,2.25-5.47,4.54c-2.6,5.55-2,11.91-1.15,17.8
		c1.69,9.96,3.26,19.98,6.34,29.63c4.81,15.44,13.55,29.66,25.45,40.64c3.15,3.18,8.62,1.65,11.15-1.59
		c-6.03-6.16-12.46-12.03-17.22-19.29c-6.03-9.05-9.65-19.5-11.83-30.1c-1.88-8.86-4.05-17.7-4.94-26.73
		c-0.03-2.94-0.14-6.97,2.86-8.54c3.14-0.07,6.16,2.67,9.36,1.2c1.71-0.53,4.75-2.19,3.09-4.26
		C725.9,418.54,718.99,416.59,713.11,419.04 M813.09,718.01c1.07,3.89,3.15,7.37,5.14,10.85c14.45,27.9,31.38,54.52,50.35,79.58
		c18.69,24.05,39.51,46.76,64.03,64.99c15.07,10.93,31.48,20.34,49.36,25.8c19.97,6.39,41.7,7.45,62.1,2.45
		c18.72-4.52,36.03-13.74,51.47-25.11c16.99-12.51,31.77-27.74,45.08-44.05c25.23-31.08,45.62-65.81,63.5-101.54
		c1.23-2.3,2.4-4.64,3-7.18c-3.49,2.6-5.83,6.32-8.9,9.35c-19.05,19.78-41.22,36.61-65.49,49.48
		c-37.37,19.96-78.87,32.19-121.09,35.74c-13.02-0.67-25.89-3.05-38.63-5.7c-39.88-8.93-78.51-24.89-111.64-49.03
		C843.29,750.71,827.36,735,813.09,718.01z"/>
	<path fill="#F6921E" stroke="#F6921E" d="M1299.4,420.24c4.77-2.44,9.99-5.31,15.55-4.24c3.41,1.39,4.33,5.53,5.48,8.67
		c2.04,9.94-1.1,19.87-3.02,29.58c-3.82,17.5-10.62,34.98-23.07,48.2c-2.52,3.04-5.23,6-8.59,8.12c-2.48,1.3-5.37,0.68-8,0.36
		c0.89-2.89,3.65-4.45,5.61-6.55c5.86-5.6,10.8-12.1,14.89-19.08c5.52-9.98,7.95-21.24,9.91-32.36c1.21-7.58,2.41-15.25,1.98-22.94
		c-0.26-2.51-0.58-5.7-3.13-6.95c-2.75,0.42-5.23,2.11-8.06,1.98c-1.31,0.08-2.95-0.47-3.02-1.98
		C1296.45,421.55,1298.16,421.04,1299.4,420.24z"/>
	<path fill="#F6921E" stroke="#F6921E" d="M713.11,419.04c5.88-2.45,12.79-0.5,17.64,3.3c1.66,2.07-1.38,3.73-3.09,4.26
		c-3.2,1.47-6.22-1.27-9.36-1.2c-3,1.57-2.89,5.6-2.86,8.54c0.89,9.03,3.06,17.87,4.94,26.73c2.18,10.6,5.8,21.05,11.83,30.1
		c4.76,7.26,11.19,13.13,17.22,19.29c-2.53,3.24-8,4.77-11.15,1.59c-11.9-10.98-20.64-25.2-25.45-40.64
		c-3.08-9.65-4.65-19.67-6.34-29.63c-0.85-5.89-1.45-12.25,1.15-17.8C708.63,421.29,710.85,419.87,713.11,419.04z"/>
	<path fill="#F7931E" stroke="#F7931E" d="M813.09,718.01c14.27,16.99,30.2,32.7,48.28,45.63c33.13,24.14,71.76,40.1,111.64,49.03
		c12.74,2.65,25.61,5.03,38.63,5.7c42.22-3.55,83.72-15.78,121.09-35.74c24.27-12.87,46.44-29.7,65.49-49.48
		c3.07-3.03,5.41-6.75,8.9-9.35c-0.6,2.54-1.77,4.88-3,7.18c-17.88,35.73-38.27,70.46-63.5,101.54
		c-13.31,16.31-28.09,31.54-45.08,44.05c-15.44,11.37-32.75,20.59-51.47,25.11c-20.4,5-42.13,3.94-62.1-2.45
		c-17.88-5.46-34.29-14.87-49.36-25.8c-24.52-18.23-45.34-40.94-64.03-64.99c-18.97-25.06-35.9-51.68-50.35-79.58
		C816.24,725.38,814.16,721.9,813.09,718.01z"/>
	<path fill="#F2F2F2" stroke="#F2F2F2" d="M811.62,874.58c1.14,0.37,1.79,1.4,2.41,2.38c11.4,19.33,25.28,37.1,40.14,53.89
		c24.69,27.68,52.48,52.44,81.6,75.34c26.29,20.53,53.69,39.66,82.22,56.94c2.51,2.19,5.16-0.44,7.33-1.79
		c44.79-30.98,86.94-65.98,124.52-105.43c23.22-24.61,44.81-51.03,61.89-80.31l0.1-1.6c1.33,1.03,2.28,2.47,2.99,4.01
		c7.45,15.07,13.58,30.81,18.16,47c0.87,3.37,1.94,6.69,2.85,10.07c0.53,10-0.44,20-1.01,29.99c-1.98,27.78-5.34,55.45-9.12,83.04
		c-0.44,3.23-0.83,6.49-1.83,9.62c-9.46,20.8-18.05,42-27.41,62.85c-6.36,13.87-12.04,28.13-19.68,41.37
		c-18.16-15.85-36.55-31.45-55.72-46.08c-20.13-15.27-40.79-30.1-63.33-41.65c-10.01-4.8-20.5-9.73-31.82-9.77
		c-7.9,0.21-15.98-0.61-23.66,1.75c-17.24,4.94-33.11,13.6-48.62,22.44c-11.84,6.91-23.43,14.25-34.81,21.9
		c-24.14,16.18-47.62,33.36-70.4,51.41c-4.4-6.42-7.24-13.72-10.61-20.69c-9.15-19.97-17.83-40.14-26.51-60.31
		c-7.52-17.56-15.05-35.12-22.36-52.77c-7.02-22.24-7.45-46.11-4.3-69.07c2.46-18.32,7.45-36.2,13.6-53.6
		C802.2,894.98,806.89,884.76,811.62,874.58z"/>
	<path fill="#1A1A1A" stroke="#1A1A1A" d="M1233.81,904.68c17.98,18.54,35.55,37.48,53.26,56.28c26.62,28.4,53.14,56.9,79.32,85.7
		c2.3,2.4,4.2,5.38,7.31,6.84c1.12,3.21,3.74,5.43,6.01,7.84c11.66,13.01,23.31,26.05,34.61,39.39c6.05,7.01,11.97,14.16,17.4,21.68
		c1.39,1.89,2.42,4.03,3.36,6.2c-26.52,11.95-53.04,23.9-79.54,35.89c-3.07,1.26-6.09,2.63-8.91,4.38
		c26.75,1.85,53.57,2.48,80.34,3.85c20.18,0.96,40.39,1.57,60.55,2.86c-8.21,19.05-18.35,37.2-26.97,56.06
		c-7.98,15.68-15.47,31.62-23.83,47.1c-36.31,72.29-74.24,143.75-113.54,214.46c-37.07,66.44-75.54,132.13-117.04,195.9
		c-19.93,30.46-40.55,60.49-62.62,89.44c-22.88,29.44-46.53,58.74-75.23,82.76c-13.21,10.62-27.48,21.03-44.34,24.76
		c-6.98,2.15-14.63,2.92-21.62,0.41c-4.7-1.43-8.21-5-12.34-7.42c-16.2-8.77-30.26-20.95-43.32-33.81
		c-23.59-22.94-44.02-48.83-63.91-74.96c-46.83-63.21-88.33-130.17-128.2-197.93c-67.93-116.43-130.6-235.82-190.22-356.69
		c-6.51-13.39-13.57-26.54-19.28-40.3c38.64-1.71,77.29-3.34,115.93-5.14c8.41-0.3,16.84-0.48,25.21-1.43
		c-29.39-13.95-59.48-26.45-88.79-40.56c5.39-9.81,13.14-18.03,20.12-26.7c10.58-12.39,21.37-24.62,32.23-36.76
		c6.92-7.68,14.05-15.19,20.58-23.21c3.33-2.74,6.01-6.15,8.95-9.28c27.91-30.41,56.07-60.59,84.36-90.65
		c11.58-12,22.61-24.54,34.59-36.13c-6.15,17.4-11.14,35.28-13.6,53.6c-3.15,22.96-2.72,46.83,4.3,69.07
		c7.31,17.65,14.84,35.21,22.36,52.77c-0.48,11.85,0.77,23.67,3,35.3c-0.2,2.97,0.67,5.81,1.35,8.67
		c7.64,41.37,17.58,82.28,27.61,123.12c24.25,97.17,50.62,193.79,77.53,290.24c10.03,36.12,20.15,72.22,30.51,108.25
		c43.03,0.89,86.07,2.13,129.1,3.24c12.12-42.49,24.1-85.03,35.89-127.61c24.98-89.94,49.53-180.01,72.13-270.58
		c10.93-44.24,21.75-88.56,29.72-133.44c1.86-12.26,4.12-24.66,2.89-37.09c0.47-7.83,2.84-15.44,2.84-23.32
		c1-3.13,1.39-6.39,1.83-9.62c3.78-27.59,7.14-55.26,9.12-83.04c0.57-9.99,1.54-19.99,1.01-29.99c-0.14-3.16,0.01-6.3,0.09-9.44
		C1236,918.59,1235.05,911.59,1233.81,904.68z"/>
	<path opacity="0.95" fill="#787878" stroke="#787878" enable-background="new    " d="M1232.98,925.01
		c0.74,0.15,2.21,0.47,2.94,0.63c-0.08,3.14-0.23,6.28-0.09,9.44C1234.92,931.7,1233.85,928.38,1232.98,925.01z"/>
	<path stroke="#000000" d="M614.08,1058.46c18.73-5.69,37.34-11.87,56.26-16.89c-6.53,8.02-13.66,15.53-20.58,23.21
		c-10.86,12.14-21.65,24.37-32.23,36.76c-6.98,8.67-14.73,16.89-20.12,26.7c29.31,14.11,59.4,26.61,88.79,40.56
		c-8.37,0.95-16.8,1.13-25.21,1.43c-38.64,1.8-77.29,3.43-115.93,5.14c5.71,13.76,12.77,26.91,19.28,40.3
		c59.62,120.87,122.29,240.26,190.22,356.69c39.87,67.76,81.37,134.72,128.2,197.93c19.89,26.13,40.32,52.02,63.91,74.96
		c13.06,12.86,27.12,25.04,43.32,33.81c4.13,2.42,7.64,5.99,12.34,7.42c6.99,2.51,14.64,1.74,21.62-0.41
		c16.86-3.73,31.13-14.14,44.34-24.76c28.7-24.02,52.35-53.32,75.23-82.76c22.07-28.95,42.69-58.98,62.62-89.44
		c41.5-63.77,79.97-129.46,117.04-195.9c39.3-70.71,77.23-142.17,113.54-214.46c8.36-15.48,15.85-31.42,23.83-47.1
		c8.62-18.86,18.76-37.01,26.97-56.06c-20.16-1.29-40.37-1.9-60.55-2.86c-26.77-1.37-53.59-2-80.34-3.85
		c2.82-1.75,5.84-3.12,8.91-4.38c26.5-11.99,53.02-23.94,79.54-35.89c-0.94-2.17-1.97-4.31-3.36-6.2
		c-5.43-7.52-11.35-14.67-17.4-21.68c-11.3-13.34-22.95-26.38-34.61-39.39c-2.27-2.41-4.89-4.63-6.01-7.84
		c35.64,10.57,70.92,22.34,106.27,33.87c37.55,12.5,75.02,25.29,112.36,38.43c4.62,1.46,7.65,5.51,11.18,8.59
		c19.6,19.42,36.27,41.6,51.34,64.66c19.36,29.81,35.73,61.48,50,94.01c27.36,62.87,46.65,129.02,60.46,196.1
		c25.89,126.77,32.79,256.77,29.38,385.89c-2.97,106.75-13.23,213.23-28.49,318.9c-2.97,21.72-6.78,43.34-9.8,65.05H248.21
		c-8.99-54.16-16.53-108.55-22.71-163.1c-11.47-102.18-17.81-205.04-16.51-307.87c1.37-98.88,9.68-197.9,29.22-294.93
		c16.49-81.06,40.74-161.01,77.7-235.2c16.08-31.81,34.37-62.61,56.22-90.81c10.59-13.59,21.88-26.72,34.68-38.29
		c2.79-2.66,6.68-3.46,10.18-4.76C482.33,1101.13,548,1079.14,614.08,1058.46z"/>
	<path fill="#666666" stroke="#666666" d="M1196.46,1120.58c9.36-20.85,17.95-42.05,27.41-62.85c0,7.88-2.37,15.49-2.84,23.32
		c1.23,12.43-1.03,24.83-2.89,37.09c-0.1-0.29-0.32-0.86-0.43-1.15c-11.15,20.92-22.92,41.67-37.25,60.59
		c-3.56-7.54-10.82-11.95-17.17-16.87c-15.18-11.43-31.05-21.9-47.45-31.49c2.23-4.25,3.92-8.74,5.22-13.35
		c19.17,14.63,37.56,30.23,55.72,46.08C1184.42,1148.71,1190.1,1134.45,1196.46,1120.58z"/>
	<path fill="#ED1C24" stroke="#ED1C24" d="M1002.25,1066.2c7.68-2.36,15.76-1.54,23.66-1.75c11.32,0.04,21.81,4.97,31.82,9.77
		c22.54,11.55,43.2,26.38,63.33,41.65c-1.3,4.61-2.99,9.1-5.22,13.35c-13.2,8.99-25.25,20.04-34.1,33.41
		c-7.81,11.64-11.81,26.31-9.02,40.21c14.52,106.44,29.08,212.87,43.57,319.32c-11.79,42.58-23.77,85.12-35.89,127.61
		c-43.03-1.11-86.07-2.35-129.1-3.24c-10.36-36.03-20.48-72.13-30.51-108.25c15.73-115.07,31.37-230.16,47.16-345.22
		c1.7-8.57-1.58-17.13-5.39-24.66c-8.71-16.11-22.59-28.75-37.37-39.21c-3.41-5.7-5.2-12.16-6.37-18.65
		c11.38-7.65,22.97-14.99,34.81-21.9C969.14,1079.8,985.01,1071.14,1002.25,1066.2z"/>
	<path fill="#666666" stroke="#666666" d="M811.3,1080.95c8.68,20.17,17.36,40.34,26.51,60.31c3.37,6.97,6.21,14.27,10.61,20.69
		c22.78-18.05,46.26-35.23,70.4-51.41c1.17,6.49,2.96,12.95,6.37,18.65c-16.04,9.28-31.51,19.53-46.35,30.62
		c-10.45,7.41-20.59,16.07-26.48,27.67c-4.71-6.08-8.39-12.87-12.31-19.46c-6.4-11.14-12.46-22.46-18.15-33.96
		c-2.85-5.79-6.06-11.49-7.6-17.81C812.07,1104.62,810.82,1092.8,811.3,1080.95z"/>
	<path fill="#F2F2F2" stroke="#F2F2F2" d="M814.3,1116.25c1.54,6.32,4.75,12.02,7.6,17.81c5.69,11.5,11.75,22.82,18.15,33.96
		c3.92,6.59,7.6,13.38,12.31,19.46c5.89-11.6,16.03-20.26,26.48-27.67c14.84-11.09,30.31-21.34,46.35-30.62
		c14.78,10.46,28.66,23.1,37.37,39.21c3.81,7.53,7.09,16.09,5.39,24.66c-15.79,115.06-31.43,230.15-47.16,345.22
		c-26.91-96.45-53.28-193.07-77.53-290.24c-10.03-40.84-19.97-81.75-27.61-123.12C814.97,1122.06,814.1,1119.22,814.3,1116.25z"/>
	<path fill="#F2F2F2" stroke="#F2F2F2" d="M1217.71,1116.99c0.11,0.29,0.33,0.86,0.43,1.15c-7.97,44.88-18.79,89.2-29.72,133.44
		c-22.6,90.57-47.15,180.64-72.13,270.58c-14.49-106.45-29.05-212.88-43.57-319.32c-2.79-13.9,1.21-28.57,9.02-40.21
		c8.85-13.37,20.9-24.42,34.1-33.41c16.4,9.59,32.27,20.06,47.45,31.49c6.35,4.92,13.61,9.33,17.17,16.87
		C1194.79,1158.66,1206.56,1137.91,1217.71,1116.99z"/>
</g>
</svg>
